<?xml version="1.0" encoding="UTF-8"?>
<svg viewBox="0 0 237.5 71.471" xmlns="http://www.w3.org/2000/svg">
<path d="m29.149 15.71c-17.602 0-29.149 12.825-29.149 27.879 0 14.738 11.227 27.882 28.991 27.882 18.401 0 29.394-13.223 29.394-27.882 0-15.132-11.311-27.879-29.236-27.879zm109.56 0c-17.285 0-29.79 12.106-29.79 28.676 0 11.392 8.921 27.085 29.314 27.085 8.5215 0 14.335-1.9929 19.673-4.7804v-8.5242c-6.1348 3.984-12.821 6.1328-18.957 6.1328-13.067 0-21.987-8.4422-21.987-20.63 0-11.948 9.24-20.792 21.666-20.792 6.2938 0 12.03 1.7526 18.721 5.6568v-8.364c-7.4118-3.1036-13.064-4.46-18.641-4.46zm-71.521 0.71626v54.326h7.8034v-23.577h3.2678c3.9805 0 7.2469 1.2752 14.419 12.426l7.1649 11.151h9.3182c-3.7389-5.1756-5.0969-7.0078-7.4052-10.751-4.1409-6.773-7.1681-11.792-12.108-15.06 5.8139-2.307 9.0803-7.006 9.0803-13.298 0-9.4014-6.8493-15.218-17.842-15.218h-13.698zm-38.042 6.4509c12.189 0 21.193 8.7655 21.193 20.712 0 11.868-9.0037 20.71-21.193 20.71-12.108 0-21.106-8.8417-21.106-20.71 0-11.947 8.998-20.712 21.106-20.712zm45.845 0.24256h5.0184c7.5687 0 10.595 3.1066 10.675 8.2038 0.0792 4.5403-2.3107 8.84-10.675 8.84h-5.0184v-17.044z" fill="#a7a9ac"/>
<path d="m172.69 0c-2.814 0-5.1168 2.3037-5.1168 5.1168 0 2.8146 2.3028 5.1191 5.1168 5.1191 2.8124 0 5.1191-2.3045 5.1191-5.1191 0-2.8131-2.3067-5.1168-5.1191-5.1168zm-3.904 16.426v54.326h7.8056v-54.326zm18.691 0v54.326h21.183c17.926-1e-5 28.836-13.223 28.836-27.163 0-12.824-8.8411-27.163-28.911-27.163zm7.8056 7.0116h12.028c15.211 0 22.145 9.2375 22.145 20.151 0 6.691-4.0666 20.154-21.749 20.154h-12.424z" fill="#a6ce39"/>
</svg>
