<?xml version="1.0" encoding="UTF-8" standalone="no"?>
<svg
   xmlns:dc="http://purl.org/dc/elements/1.1/"
   xmlns:cc="http://web.resource.org/cc/"
   xmlns:rdf="http://www.w3.org/1999/02/22-rdf-syntax-ns#"
   xmlns:svg="http://www.w3.org/2000/svg"
   xmlns="http://www.w3.org/2000/svg"
   xmlns:sodipodi="http://inkscape.sourceforge.net/DTD/sodipodi-0.dtd"
   xmlns:inkscape="http://www.inkscape.org/namespaces/inkscape"
   version="1.0"
   id="logo"
   width="558.06"
   height="85.151001"
   viewBox="0 0 558.06 85.151"
   overflow="visible"
   enable-background="new 0 0 558.06 85.151"
   xml:space="preserve"
   sodipodi:version="0.32"
   inkscape:version="0.43"
   sodipodi:docname="mycore_logo.svg"
   sodipodi:docbase="/home/thosch/workspace/mycore/documentation/logos"><metadata
   id="logo-metadata"><rdf:RDF><cc:Work
       rdf:about=""><dc:format>image/svg+xml</dc:format><dc:type
         rdf:resource="http://purl.org/dc/dcmitype/StillImage" /><dc:title>MyCoRe Logo</dc:title><dc:date>2006-11-22</dc:date><dc:creator><cc:Agent><dc:title>Marianne Schiller, Thomas Scheffler</dc:title></cc:Agent></dc:creator><dc:rights><cc:Agent><dc:title>© 2003 by MyCoRe.org</dc:title></cc:Agent></dc:rights><dc:publisher><cc:Agent><dc:title>MyCoRe.org</dc:title></cc:Agent></dc:publisher><dc:subject><rdf:Bag><rdf:li>MyCoRe</rdf:li><rdf:li>Logo</rdf:li></rdf:Bag></dc:subject><dc:contributor><cc:Agent><dc:title>Britta Kapitzki
Marianne Schiller
Thomas Scheffler
members of MyCoRe community</dc:title></cc:Agent></dc:contributor><dc:description>The official MyCoRe logo</dc:description><cc:license
         rdf:resource="http://creativecommons.org/licenses/GPL/2.0/" /></cc:Work><cc:License
       rdf:about="http://creativecommons.org/licenses/GPL/2.0/"><cc:permits
         rdf:resource="http://web.resource.org/cc/Reproduction" /><cc:permits
         rdf:resource="http://web.resource.org/cc/Distribution" /><cc:requires
         rdf:resource="http://web.resource.org/cc/Notice" /><cc:permits
         rdf:resource="http://web.resource.org/cc/DerivativeWorks" /><cc:requires
         rdf:resource="http://web.resource.org/cc/ShareAlike" /><cc:requires
         rdf:resource="http://web.resource.org/cc/SourceCode" /></cc:License></rdf:RDF></metadata><defs
   id="defs8" /><sodipodi:namedview
   inkscape:window-height="928"
   inkscape:window-width="1280"
   inkscape:pageshadow="2"
   inkscape:pageopacity="0.0"
   borderopacity="1.0"
   bordercolor="#666666"
   pagecolor="#ffffff"
   id="base"
   showborder="true"
   inkscape:zoom="1.4084507"
   inkscape:cx="279.03"
   inkscape:cy="42.5755"
   inkscape:window-x="0"
   inkscape:window-y="31"
   inkscape:current-layer="logo" />
<path
   d="M 480.001,78.215 L 480.001,61.447 L 534.562,39.108 L 480.001,16.769 L 480.001,0 L 558.06,32.445 L 558.06,45.772 L 480.001,78.215 M 447.997,38.167 C 446.702,36.772 444.688,36.073 441.956,36.073 C 439.417,36.073 437.331,36.734 435.694,38.056 C 434.059,39.378 433.143,41.496 432.95,44.409 L 450.046,44.409 C 449.974,41.644 449.29,39.562 447.997,38.167 z M 432.985,52.121 C 433.18,55.322 434.405,57.771 436.661,59.469 C 438.915,61.168 442.239,62.016 446.628,62.016 C 449.407,62.016 452.101,61.512 454.71,60.504 C 457.319,59.498 459.38,58.418 460.892,57.262 L 462.355,57.262 L 462.355,67.813 C 459.38,69.006 456.578,69.87 453.941,70.405 C 451.308,70.94 448.392,71.208 445.199,71.208 C 436.957,71.208 430.638,69.362 426.25,65.667 C 421.859,61.972 419.666,56.71 419.666,49.88 C 419.666,43.122 421.744,37.77 425.902,33.82 C 430.062,29.869 435.765,27.894 443.009,27.894 C 449.693,27.894 454.718,29.581 458.083,32.956 C 461.452,36.33 463.134,41.184 463.134,47.517 L 463.134,52.122 L 432.985,52.122 L 432.985,52.121 z M 389.479,19.428 C 388.803,18.236 387.643,17.298 386,16.612 C 384.855,16.134 383.52,15.845 381.992,15.74 C 380.467,15.638 378.691,15.585 376.67,15.585 L 370.549,15.585 L 370.549,33.502 L 375.744,33.502 C 378.443,33.502 380.703,33.369 382.523,33.101 C 384.341,32.833 385.869,32.222 387.103,31.268 C 388.275,30.345 389.132,29.324 389.675,28.208 C 390.218,27.092 390.491,25.595 390.491,23.715 C 390.493,22.05 390.153,20.622 389.479,19.428 z M 395.253,41.535 L 417.446,70.117 L 396.538,70.117 L 378.446,45.654 L 370.55,45.654 L 370.55,70.117 L 353.411,70.117 L 353.411,3.432 L 382.159,3.432 C 386.089,3.432 389.466,3.656 392.294,4.104 C 395.122,4.552 397.769,5.522 400.241,7.013 C 402.741,8.508 404.727,10.441 406.2,12.812 C 407.673,15.185 408.411,18.163 408.411,21.746 C 408.411,26.671 407.27,30.685 404.997,33.79 C 402.724,36.896 399.474,39.477 395.253,41.535 z M 256.047,54.012 C 257.865,55.66 259.893,56.832 262.131,57.533 C 264.365,58.236 266.572,58.588 268.752,58.588 C 270.84,58.588 272.905,58.277 274.948,57.658 C 276.991,57.039 278.878,56.195 280.608,55.133 C 282.067,54.276 283.426,53.362 284.68,52.387 C 285.932,51.414 286.961,50.574 287.768,49.862 L 289.557,49.862 L 289.557,65.792 C 287.885,66.54 286.287,67.239 284.764,67.897 C 283.241,68.555 281.641,69.12 279.971,69.596 C 277.791,70.223 275.744,70.7 273.832,71.028 C 271.92,71.354 269.293,71.52 265.951,71.52 C 260.992,71.52 256.417,70.786 252.222,69.319 C 248.026,67.854 244.419,65.669 241.405,62.76 C 238.387,59.856 236.05,56.233 234.395,51.891 C 232.736,47.547 231.909,42.532 231.909,36.843 C 231.909,31.542 232.699,26.737 234.282,22.423 C 235.865,18.111 238.163,14.413 241.181,11.327 C 244.076,8.364 247.667,6.073 251.952,4.456 C 256.237,2.84 260.919,2.03 265.997,2.03 C 268.802,2.03 271.333,2.188 273.587,2.499 C 275.841,2.811 277.925,3.22 279.837,3.726 C 281.839,4.293 283.651,4.926 285.28,5.625 C 286.907,6.326 288.333,6.972 289.557,7.565 L 289.557,23.687 L 287.588,23.687 C 286.752,22.983 285.701,22.146 284.434,21.176 C 283.166,20.208 281.727,19.251 280.116,18.311 C 278.475,17.372 276.7,16.578 274.792,15.93 C 272.884,15.285 270.839,14.961 268.663,14.961 C 266.247,14.961 263.95,15.343 261.772,16.106 C 259.593,16.867 257.581,18.131 255.733,19.894 C 253.972,21.598 252.548,23.855 251.461,26.664 C 250.37,29.473 249.827,32.881 249.827,36.887 C 249.827,41.071 250.417,44.569 251.595,47.379 C 252.772,50.188 254.255,52.4 256.047,54.012 z M 203.358,85.152 L 188.984,85.152 L 195.56,69.673 L 179.647,29.138 L 193.457,29.138 L 203.221,55.501 L 212.53,29.138 L 226.156,29.138 L 203.358,85.152 z M 152.847,70.117 L 152.847,25.439 L 140.635,54.381 L 128.911,54.381 L 116.7,25.439 L 116.7,70.117 L 100.34,70.117 L 100.34,3.432 L 120.417,3.432 L 135.238,36.845 L 150.016,3.432 L 169.986,3.432 L 169.986,70.118 L 152.847,70.118 L 152.847,70.117 z M 78.06,78.215 L 0,45.771 L 0,32.445 L 78.06,0 L 78.06,16.769 L 23.705,39.19 L 78.06,61.447 L 78.06,78.215 z "
   id="MyC_re"
   style="fill:#1e427e" />

<path
   sodipodi:type="arc"
   style="fill:#f39921;fill-opacity:1;fill-rule:evenodd;stroke:#f39921;stroke-width:1;stroke-linecap:butt;stroke-linejoin:miter;stroke-miterlimit:4;stroke-dasharray:none;stroke-opacity:0.6"
   id="filledO"
   sodipodi:cx="169.69"
   sodipodi:cy="-135.659"
   sodipodi:rx="32.66"
   sodipodi:ry="28.4"
   d="M 202.35 -135.659 A 32.66 28.4 0 1 1  137.03,-135.659 A 32.66 28.4 0 1 1  202.35 -135.659 z"
   transform="matrix(0.740311,0,0,0.851358,195.9521,162.2829)" /></svg>
